<svg width="22" height="22" viewBox="0 0 22 22" fill="none" xmlns="http://www.w3.org/2000/svg">
<path d="M11 0C4.92339 0 0 4.92339 0 11C0 17.0766 4.92339 22 11 22C17.0766 22 22 17.0766 22 11C22 4.92339 17.0766 0 11 0ZM14.5484 7.45161C15.3335 7.45161 15.9677 8.08589 15.9677 8.87097C15.9677 9.65605 15.3335 10.2903 14.5484 10.2903C13.7633 10.2903 13.129 9.65605 13.129 8.87097C13.129 8.08589 13.7633 7.45161 14.5484 7.45161ZM7.45161 7.45161C8.23669 7.45161 8.87097 8.08589 8.87097 8.87097C8.87097 9.65605 8.23669 10.2903 7.45161 10.2903C6.66653 10.2903 6.03226 9.65605 6.03226 8.87097C6.03226 8.08589 6.66653 7.45161 7.45161 7.45161ZM11 18.8065C8.3121 18.8065 5.03427 17.1077 4.62177 14.6681C4.53306 14.1448 5.03427 13.7101 5.53992 13.8742C6.87944 14.3044 8.87097 14.5484 11 14.5484C13.129 14.5484 15.1206 14.3044 16.4601 13.8742C16.9613 13.7101 17.4625 14.1448 17.3782 14.6681C16.9657 17.1077 13.6879 18.8065 11 18.8065Z" fill="#4F024C"/>
</svg>
