<svg width="22" height="22" viewBox="0 0 22 22" fill="none" xmlns="http://www.w3.org/2000/svg">
<path d="M0.785714 4.04082H21.2143C21.6482 4.04082 22 3.63881 22 3.14286V0.897959C22 0.402005 21.6482 0 21.2143 0H0.785714C0.351754 0 0 0.402005 0 0.897959V3.14286C0 3.63881 0.351754 4.04082 0.785714 4.04082ZM0.785714 13.0204H21.2143C21.6482 13.0204 22 12.6184 22 12.1224V9.87755C22 9.3816 21.6482 8.97959 21.2143 8.97959H0.785714C0.351754 8.97959 0 9.3816 0 9.87755V12.1224C0 12.6184 0.351754 13.0204 0.785714 13.0204ZM0.785714 22H21.2143C21.6482 22 22 21.598 22 21.102V18.8571C22 18.3612 21.6482 17.9592 21.2143 17.9592H0.785714C0.351754 17.9592 0 18.3612 0 18.8571V21.102C0 21.598 0.351754 22 0.785714 22Z" fill="#00FFFF"/>
</svg>
