<svg width="22" height="22" viewBox="0 0 22 22" fill="none" xmlns="http://www.w3.org/2000/svg">
<path d="M19.9375 0H2.0625C0.923828 0 0 1.0558 0 2.35714V19.6429C0 20.9442 0.923828 22 2.0625 22H19.9375C21.0762 22 22 20.9442 22 19.6429V2.35714C22 1.0558 21.0762 0 19.9375 0ZM19.9375 19.3482C19.9375 19.5103 19.8215 19.6429 19.6797 19.6429H2.32031C2.17852 19.6429 2.0625 19.5103 2.0625 19.3482V2.65179C2.0625 2.48973 2.17852 2.35714 2.32031 2.35714H19.6797C19.8215 2.35714 19.9375 2.48973 19.9375 2.65179V19.3482ZM15.3184 7.98482L12.6801 11L15.3184 14.0152C15.516 14.2411 15.516 14.6094 15.3184 14.8402L14.3602 15.9353C14.1625 16.1612 13.8402 16.1612 13.6383 15.9353L11 12.9201L8.36172 15.9353C8.16406 16.1612 7.8418 16.1612 7.63984 15.9353L6.68164 14.8402C6.48398 14.6143 6.48398 14.246 6.68164 14.0152L9.31992 11L6.68164 7.98482C6.48398 7.75893 6.48398 7.39062 6.68164 7.15982L7.63984 6.06473C7.8375 5.83884 8.15977 5.83884 8.36172 6.06473L11 9.07991L13.6383 6.06473C13.8359 5.83884 14.1582 5.83884 14.3602 6.06473L15.3184 7.15982C15.5203 7.38571 15.5203 7.75402 15.3184 7.98482Z" fill="#00FFFF"/>
</svg>
