<svg width="22" height="22" viewBox="0 0 22 22" fill="none" xmlns="http://www.w3.org/2000/svg">
<path d="M21.6399 7.37142L21.9907 5.40714C22.0551 5.04595 21.7774 4.71429 21.4106 4.71429H17.7369L18.455 0.692853C18.5194 0.33167 18.2417 0 17.8749 0H15.8795C15.7412 2.51265e-06 15.6073 0.0486649 15.5012 0.137466C15.3952 0.226267 15.3237 0.349547 15.2994 0.485719L14.5443 4.71429H9.70063L10.4187 0.692853C10.4832 0.33167 10.2055 0 9.83862 0H7.8433C7.70497 2.51265e-06 7.57106 0.0486649 7.465 0.137466C7.35894 0.226267 7.2875 0.349547 7.26319 0.485719L6.50807 4.71429H2.6239C2.48557 4.71429 2.35166 4.76295 2.2456 4.85175C2.13954 4.94055 2.06811 5.06383 2.04379 5.2L1.69302 7.16429C1.62854 7.52547 1.90625 7.85714 2.27312 7.85714H5.94683L4.82439 14.1429H0.94021C0.801886 14.1429 0.66797 14.1915 0.561914 14.2803C0.455857 14.3691 0.384418 14.4924 0.360108 14.6286L0.00933577 16.5929C-0.0551419 16.954 0.222559 17.2857 0.589438 17.2857H4.26314L3.54505 21.3071C3.48057 21.6683 3.75827 22 4.12515 22H6.12047C6.2588 22 6.39271 21.9513 6.49877 21.8625C6.60482 21.7737 6.67626 21.6505 6.70057 21.5143L7.45574 17.2857H12.2994L11.5813 21.3071C11.5168 21.6683 11.7945 22 12.1614 22H14.1567C14.295 22 14.4289 21.9513 14.535 21.8625C14.6411 21.7737 14.7125 21.6505 14.7368 21.5143L15.4919 17.2857H19.3761C19.5144 17.2857 19.6483 17.237 19.7544 17.1482C19.8605 17.0594 19.9319 16.9362 19.9562 16.8L20.307 14.8357C20.3715 14.4745 20.0938 14.1429 19.7269 14.1429H16.0532L17.1756 7.85714H21.0598C21.1981 7.85714 21.332 7.80848 21.4381 7.71968C21.5441 7.63088 21.6156 7.5076 21.6399 7.37142ZM12.8606 14.1429H8.01699L9.13943 7.85714H13.9831L12.8606 14.1429Z" fill="#4F024C"/>
</svg>
