<svg width="22" height="22" viewBox="0 0 22 22" fill="none" xmlns="http://www.w3.org/2000/svg">
<path d="M21.2007 1.05698L16.732 0.0257271C16.2464 -0.0859916 15.748 0.167524 15.5503 0.622993L13.4878 5.43549C13.3074 5.85659 13.4277 6.35073 13.7843 6.63862L16.3882 8.76987C14.8413 12.0656 12.1386 14.807 8.77415 16.3839L6.6429 13.78C6.35071 13.4234 5.86087 13.3031 5.43977 13.4835L0.627273 15.546C0.167507 15.748 -0.0860087 16.2464 0.02571 16.732L1.05696 21.2007C1.16438 21.6648 1.57688 21.9999 2.06243 21.9999C13.0667 21.9999 21.9999 13.0839 21.9999 2.06245C21.9999 1.5812 21.6691 1.1644 21.2007 1.05698Z" fill="#4F024C"/>
</svg>
