<svg width="22" height="22" viewBox="0 0 22 22" fill="none" xmlns="http://www.w3.org/2000/svg">
<path d="M19.7386 5.48279C19.7526 5.72341 19.7526 5.96407 19.7526 6.20469C19.7526 13.5437 15.2158 22 6.92388 22C4.36929 22 1.99621 21.089 0 19.5078C0.362958 19.5594 0.711909 19.5766 1.08883 19.5766C3.19667 19.5766 5.13706 18.7 6.68656 17.2047C4.70432 17.1531 3.04314 15.5547 2.4708 13.3547C2.75001 13.4062 3.02918 13.4406 3.32236 13.4406C3.72717 13.4406 4.13202 13.3718 4.5089 13.2516C2.44291 12.7359 0.893367 10.5016 0.893367 7.80312V7.73439C1.4936 8.14689 2.19163 8.4047 2.93143 8.43904C1.71695 7.44214 0.921297 5.7406 0.921297 3.81559C0.921297 2.78436 1.14461 1.83904 1.53549 1.01404C3.75505 4.38278 7.09138 6.58275 10.8325 6.82341C10.7627 6.41091 10.7208 5.98127 10.7208 5.55157C10.7208 2.49216 12.731 0 15.2297 0C16.5279 0 17.7005 0.670311 18.5241 1.75312C19.5431 1.51251 20.5203 1.04843 21.3858 0.412503C21.0507 1.70159 20.3388 2.78441 19.4036 3.47186C20.3109 3.35161 21.1904 3.04216 22 2.61252C21.3859 3.71247 20.6181 4.69212 19.7386 5.48279Z" fill="#4F024C"/>
</svg>
