<svg width="22" height="18" viewBox="0 0 22 18" fill="none" xmlns="http://www.w3.org/2000/svg">
<path d="M21.5403 2.81639C21.2873 1.7078 20.5418 0.834703 19.5953 0.538406C17.8796 0 11 0 11 0C11 0 4.12044 0 2.40474 0.538406C1.45821 0.83475 0.71273 1.7078 0.459711 2.81639C0 4.82578 0 9.01819 0 9.01819C0 9.01819 0 13.2106 0.459711 15.22C0.71273 16.3286 1.45821 17.1653 2.40474 17.4616C4.12044 18 11 18 11 18C11 18 17.8796 18 19.5953 17.4616C20.5418 17.1653 21.2873 16.3286 21.5403 15.22C22 13.2106 22 9.01819 22 9.01819C22 9.01819 22 4.82578 21.5403 2.81639ZM8.74998 12.8246V5.2118L14.5 9.01828L8.74998 12.8246Z" fill="#4F024C"/>
</svg>
